<svg width="288" height="280" viewBox="0 0 288 280" fill="none" xmlns="http://www.w3.org/2000/svg">
<path d="M176.571 74C217.297 74 252.735 93.4621 270.998 122.159C254.643 106.296 230.905 96.3154 204.487 96.3154C155.15 96.3156 115.155 131.122 115.155 174.059C115.155 216.995 155.151 251.802 204.487 251.802C210.578 251.802 216.526 251.269 222.274 250.259C208.403 255.865 192.913 259 176.571 259C117.161 259 69 217.586 69 166.5C69 115.414 117.161 74 176.571 74Z" fill="#DC586D"/>
<path d="M141.217 10.9865C194.561 6.31951 243.337 29.1922 270.733 66.8142C247.39 46.7343 215.087 35.6421 180.484 38.6695C115.861 44.3234 67.6884 97.0758 72.887 156.496C78.0855 215.915 134.687 259.501 199.31 253.848C207.287 253.15 215.014 251.732 222.421 249.675C204.931 259.023 185.021 265.136 163.616 267.009C85.7991 273.817 17.7016 222.023 11.5163 151.325C5.33095 80.6262 63.4 17.7946 141.217 10.9865Z" fill="#FB9590"/>
</svg>
